<mxfile host="app.diagrams.net" modified="2024-01-18T06:24:32.078Z" agent="Mozilla/5.0 (Windows NT 10.0; Win64; x64) AppleWebKit/537.36 (KHTML, like Gecko) Chrome/120.0.0.0 Safari/537.36" etag="aYvLdu0oDmUAINggcIKF" version="22.1.21" type="github">
  <diagram name="Page-1" id="zCXWzLUwnWcZddKUeMfU">
    <mxGraphModel dx="880" dy="434" grid="1" gridSize="10" guides="1" tooltips="1" connect="1" arrows="1" fold="1" page="1" pageScale="1" pageWidth="850" pageHeight="1100" math="0" shadow="0">
      <root>
        <mxCell id="0" />
        <mxCell id="1" parent="0" />
        <mxCell id="rxUftr2OwrsVNxe5Y76c-1" style="edgeStyle=orthogonalEdgeStyle;rounded=0;orthogonalLoop=1;jettySize=auto;html=1;exitX=1;exitY=0.5;exitDx=0;exitDy=0;curved=1;entryX=0.5;entryY=0;entryDx=0;entryDy=0;" edge="1" parent="1" source="rxUftr2OwrsVNxe5Y76c-2" target="rxUftr2OwrsVNxe5Y76c-8">
          <mxGeometry relative="1" as="geometry" />
        </mxCell>
        <mxCell id="rxUftr2OwrsVNxe5Y76c-2" value="" style="ellipse;whiteSpace=wrap;html=1;" vertex="1" parent="1">
          <mxGeometry x="360" y="80" width="120" height="80" as="geometry" />
        </mxCell>
        <mxCell id="rxUftr2OwrsVNxe5Y76c-3" style="edgeStyle=orthogonalEdgeStyle;rounded=0;orthogonalLoop=1;jettySize=auto;html=1;exitX=0.5;exitY=0;exitDx=0;exitDy=0;entryX=0;entryY=0.5;entryDx=0;entryDy=0;curved=1;" edge="1" parent="1" source="rxUftr2OwrsVNxe5Y76c-4" target="rxUftr2OwrsVNxe5Y76c-2">
          <mxGeometry relative="1" as="geometry" />
        </mxCell>
        <mxCell id="rxUftr2OwrsVNxe5Y76c-4" value="Operational Challenges" style="ellipse;whiteSpace=wrap;html=1;" vertex="1" parent="1">
          <mxGeometry x="200" y="160" width="120" height="80" as="geometry" />
        </mxCell>
        <mxCell id="rxUftr2OwrsVNxe5Y76c-5" style="edgeStyle=orthogonalEdgeStyle;rounded=0;orthogonalLoop=1;jettySize=auto;html=1;exitX=0;exitY=0.5;exitDx=0;exitDy=0;entryX=0.5;entryY=1;entryDx=0;entryDy=0;curved=1;" edge="1" parent="1" source="rxUftr2OwrsVNxe5Y76c-6" target="rxUftr2OwrsVNxe5Y76c-4">
          <mxGeometry relative="1" as="geometry" />
        </mxCell>
        <mxCell id="rxUftr2OwrsVNxe5Y76c-6" value="" style="ellipse;whiteSpace=wrap;html=1;" vertex="1" parent="1">
          <mxGeometry x="280" y="279.5" width="120" height="80" as="geometry" />
        </mxCell>
        <mxCell id="rxUftr2OwrsVNxe5Y76c-8" value="Quality Control" style="ellipse;whiteSpace=wrap;html=1;" vertex="1" parent="1">
          <mxGeometry x="520" y="160" width="120" height="80" as="geometry" />
        </mxCell>
        <mxCell id="rxUftr2OwrsVNxe5Y76c-9" value="Faulty Product" style="text;html=1;strokeColor=none;fillColor=none;align=center;verticalAlign=middle;whiteSpace=wrap;rounded=0;" vertex="1" parent="1">
          <mxGeometry x="370" y="105" width="100" height="30" as="geometry" />
        </mxCell>
        <mxCell id="rxUftr2OwrsVNxe5Y76c-10" value="B" style="text;html=1;strokeColor=none;fillColor=none;align=center;verticalAlign=middle;whiteSpace=wrap;rounded=0;fontSize=31;" vertex="1" parent="1">
          <mxGeometry x="390" y="200" width="60" height="30" as="geometry" />
        </mxCell>
        <mxCell id="rxUftr2OwrsVNxe5Y76c-11" value="" style="shape=mxgraph.signs.healthcare.first_aid;html=1;pointerEvents=1;fillColor=#000000;strokeColor=none;verticalLabelPosition=bottom;verticalAlign=top;align=center;" vertex="1" parent="1">
          <mxGeometry x="240" y="279.5" width="20" height="19" as="geometry" />
        </mxCell>
        <mxCell id="rxUftr2OwrsVNxe5Y76c-12" value="Financial and Reputation" style="text;html=1;strokeColor=none;fillColor=none;align=center;verticalAlign=middle;whiteSpace=wrap;rounded=0;" vertex="1" parent="1">
          <mxGeometry x="292.5" y="304.5" width="95" height="30" as="geometry" />
        </mxCell>
        <mxCell id="rxUftr2OwrsVNxe5Y76c-13" value="Because of Faulty Products an increase on Quality Control can help supplement the problem" style="text;html=1;strokeColor=none;fillColor=none;align=center;verticalAlign=middle;whiteSpace=wrap;rounded=0;" vertex="1" parent="1">
          <mxGeometry x="580" y="80" width="80" height="30" as="geometry" />
        </mxCell>
        <mxCell id="rxUftr2OwrsVNxe5Y76c-14" value="Increase in Quality Control can cause an increase in Consumers Confidence to buy the certain products" style="text;html=1;strokeColor=none;fillColor=none;align=center;verticalAlign=middle;whiteSpace=wrap;rounded=0;" vertex="1" parent="1">
          <mxGeometry x="598" y="334.5" width="90" height="30" as="geometry" />
        </mxCell>
        <mxCell id="rxUftr2OwrsVNxe5Y76c-15" value="Increase in Financial Reputation means Operational Challenges will decrease because there will be sufficient funds" style="text;html=1;strokeColor=none;fillColor=none;align=center;verticalAlign=middle;whiteSpace=wrap;rounded=0;" vertex="1" parent="1">
          <mxGeometry x="140" y="270" width="100" height="55.5" as="geometry" />
        </mxCell>
        <mxCell id="rxUftr2OwrsVNxe5Y76c-16" value="Decrease in Operational Challenges mean decrease in Faulty Products because of an efficient manufacturing of products" style="text;html=1;strokeColor=none;fillColor=none;align=center;verticalAlign=middle;whiteSpace=wrap;rounded=0;" vertex="1" parent="1">
          <mxGeometry x="160" y="80" width="100" height="30" as="geometry" />
        </mxCell>
        <mxCell id="rxUftr2OwrsVNxe5Y76c-18" value="&lt;font style=&quot;font-size: 60px;&quot;&gt;-&lt;/font&gt;" style="text;html=1;strokeColor=none;fillColor=none;align=center;verticalAlign=middle;whiteSpace=wrap;rounded=0;" vertex="1" parent="1">
          <mxGeometry x="250" y="90.5" width="60" height="30" as="geometry" />
        </mxCell>
        <mxCell id="rxUftr2OwrsVNxe5Y76c-19" value="" style="shape=mxgraph.signs.healthcare.first_aid;html=1;pointerEvents=1;fillColor=#000000;strokeColor=none;verticalLabelPosition=bottom;verticalAlign=top;align=center;" vertex="1" parent="1">
          <mxGeometry x="580" y="315.5" width="20" height="19" as="geometry" />
        </mxCell>
        <mxCell id="rxUftr2OwrsVNxe5Y76c-20" value="" style="edgeStyle=orthogonalEdgeStyle;rounded=0;orthogonalLoop=1;jettySize=auto;html=1;exitX=0.5;exitY=1;exitDx=0;exitDy=0;entryX=1;entryY=0.5;entryDx=0;entryDy=0;curved=1;" edge="1" parent="1" source="rxUftr2OwrsVNxe5Y76c-8" target="rxUftr2OwrsVNxe5Y76c-21">
          <mxGeometry relative="1" as="geometry">
            <mxPoint x="580" y="280" as="sourcePoint" />
            <mxPoint x="400" y="362" as="targetPoint" />
          </mxGeometry>
        </mxCell>
        <mxCell id="rxUftr2OwrsVNxe5Y76c-22" style="edgeStyle=orthogonalEdgeStyle;rounded=0;orthogonalLoop=1;jettySize=auto;html=1;exitX=0.5;exitY=1;exitDx=0;exitDy=0;entryX=0.5;entryY=1;entryDx=0;entryDy=0;curved=1;" edge="1" parent="1" source="rxUftr2OwrsVNxe5Y76c-21" target="rxUftr2OwrsVNxe5Y76c-6">
          <mxGeometry relative="1" as="geometry">
            <mxPoint x="350" y="450" as="targetPoint" />
          </mxGeometry>
        </mxCell>
        <mxCell id="rxUftr2OwrsVNxe5Y76c-21" value="Consumers Confidence" style="ellipse;whiteSpace=wrap;html=1;" vertex="1" parent="1">
          <mxGeometry x="440" y="279" width="120" height="80" as="geometry" />
        </mxCell>
        <mxCell id="rxUftr2OwrsVNxe5Y76c-25" value="" style="shape=mxgraph.signs.healthcare.first_aid;html=1;pointerEvents=1;fillColor=#000000;strokeColor=none;verticalLabelPosition=bottom;verticalAlign=top;align=center;" vertex="1" parent="1">
          <mxGeometry x="538" y="101.5" width="20" height="19" as="geometry" />
        </mxCell>
        <mxCell id="rxUftr2OwrsVNxe5Y76c-27" value="" style="shape=mxgraph.signs.healthcare.first_aid;html=1;pointerEvents=1;fillColor=#000000;strokeColor=none;verticalLabelPosition=bottom;verticalAlign=top;align=center;" vertex="1" parent="1">
          <mxGeometry x="410" y="359" width="20" height="19" as="geometry" />
        </mxCell>
        <mxCell id="rxUftr2OwrsVNxe5Y76c-28" value="Increase in Consumers Confidence mean Financial and Reputation of the product/services will increase" style="text;html=1;strokeColor=none;fillColor=none;align=center;verticalAlign=middle;whiteSpace=wrap;rounded=0;" vertex="1" parent="1">
          <mxGeometry x="330" y="390" width="190" height="30" as="geometry" />
        </mxCell>
      </root>
    </mxGraphModel>
  </diagram>
</mxfile>
